<svg viewBox="0 0 144 145" xmlns="http://www.w3.org/2000/svg"><path d="M115.58 7.81L85.48 52.5a3.2 3.2 0 004.75 4.2L119.86 31a1.2 1.2 0 012 .91v80.46a1.2 1.2 0 01-2.12.77L30.18 5.93A15.346 15.346 0 0018.47.5h-3.13C6.868.5 0 7.368 0 15.84v113.32c0 8.472 6.868 15.34 15.34 15.34a15.353 15.353 0 0013.08-7.31l30.1-44.69a3.2 3.2 0 00-4.75-4.2L24.14 114a1.2 1.2 0 01-2-.91V32.61a1.2 1.2 0 012.12-.77l89.55 107.23a15.346 15.346 0 0011.71 5.43h3.13A15.34 15.34 0 00144 129.16V15.84C144 7.368 137.132.5 128.66.5a15.353 15.353 0 00-13.08 7.31z" fill="currentColor"/></svg>